<?xml version="1.0" encoding="utf-8"?>
<!-- Generator: Adobe Illustrator 27.0.0, SVG Export Plug-In . SVG Version: 6.00 Build 0)  -->
<svg version="1.1" id="Layer_1" xmlns="http://www.w3.org/2000/svg" xmlns:xlink="http://www.w3.org/1999/xlink" x="0px" y="0px"
	 viewBox="0 0 450 450" style="enable-background:new 0 0 450 450;" xml:space="preserve">
<style type="text/css">
	.st0{opacity:0.3;}
	.st1{fill:#F2F2F2;}
	.st2{fill:#B5AFA7;}
	.st3{fill:#3D5AFE;}
	.st4{fill:#231F20;}
	.st5{fill:#414042;}
	.st6{fill:#857F79;}
	.st7{fill:#D8D1C7;}
	.st8{fill:#A39C95;}
	.st9{fill:#E6E1DD;}
	.st10{fill:#6D6E71;}
	.st11{fill:#808285;}
	.st12{fill:#58595B;}
	.st13{fill:#FA5C52;}
	.st14{fill:#AB281F;}
	.st15{fill:#8A1C14;}
	.st16{fill:#C84030;}
</style>
<g>
	<g>
		<polygon class="st0" points="394.47,238.46 247.36,323.4 55.53,212.65 202.64,127.71 		"/>
		<polygon class="st1" points="394.47,237.35 247.36,322.27 55.53,211.53 202.64,126.6 		"/>
		<polygon class="st2" points="197.01,142.2 160.05,163.54 181.34,175.82 218.31,154.49 		"/>
		<polygon class="st2" points="235.53,164.43 121.06,230.51 115.89,227.53 230.35,161.44 		"/>
		<polygon class="st2" points="247.03,171.07 132.57,237.16 127.39,234.17 241.85,168.08 		"/>
		<polygon class="st2" points="258.53,177.71 144.07,243.8 138.9,240.81 253.36,174.73 		"/>
		<polygon class="st2" points="270.04,184.36 155.57,250.44 150.4,247.45 264.86,181.37 		"/>
		<polygon class="st2" points="321.51,214.08 276.45,240.09 274.78,239.12 319.84,213.11 		"/>
		<g>
			<path class="st3" d="M258.53,253.58l-16.05,2.48l-11.76,6.79l-4.3,9.27l4.31,9.27l11.75,6.78l16.06,2.49l16.05-2.49l11.76-6.78
				l4.31-9.27l-4.3-9.27l-11.76-6.79L258.53,253.58z M282.34,264.18l3.68,7.95l-3.68,7.93l-10.06,5.81l-13.74,2.12l-13.75-2.12
				l-10.06-5.81l-3.68-7.93l3.68-7.94l10.06-5.82l13.74-2.12l13.74,2.12L282.34,264.18z"/>
			<polygon class="st3" points="251.66,265.24 246.63,268.16 244.79,272.12 246.63,276.08 251.66,278.99 258.53,280.06 
				265.4,278.99 270.43,276.08 272.27,272.12 270.43,268.15 265.4,265.24 258.53,264.18 			"/>
			<path class="st3" d="M247.71,261.3l-7.92,4.57l-2.9,6.25l2.9,6.24l7.92,4.58l10.82,1.67l10.82-1.67l7.92-4.58l2.9-6.25l-2.9-6.24
				l-7.92-4.57l-10.82-1.68L247.71,261.3z M275.94,266.32l2.69,5.8l-2.7,5.79l-7.36,4.25l-10.05,1.56l-10.04-1.56l-7.36-4.25
				l-2.69-5.79l2.69-5.8l7.36-4.25l10.05-1.55l10.05,1.55L275.94,266.32z"/>
		</g>
		<polygon class="st2" points="234.31,218.27 167.08,257.08 161.91,254.1 229.14,215.28 		"/>
	</g>
	<g>
		<polygon class="st0" points="175.83,294.52 147.33,278.07 175.83,261.62 204.32,278.07 		"/>
		<g>
			<polygon class="st4" points="204.7,238.59 200.46,238.55 200.46,249.74 202.61,254.05 204.7,252.84 			"/>
			<polygon class="st5" points="202.61,239.79 173.62,223.05 173.62,237.31 202.61,254.05 			"/>
		</g>
		<g>
			<path class="st6" d="M171.83,222.02v39.53l26.91,15.53l0.92-7.58v-32.99L171.83,222.02z"/>
			<path class="st7" d="M175.2,260.83l0.29,30.18l23.68-13.67v-29.99L175.2,260.83z M196.72,272.07l-1.82,3.17l-16.27,9.39
				l-1.83-1.05v-20.45l1.83-3.17l16.27-9.39l1.82,1.05V272.07z"/>
			<path class="st7" d="M150.87,238.59v39.53l24.96,14.4l0.92-7.58v-32.99L150.87,238.59z"/>
			<g>
				<polygon class="st8" points="164.75,281.51 164.75,282.78 161.79,281.06 161.79,249.42 162.89,250.06 163.48,279.21 				"/>
				<polygon class="st9" points="164.75,251.14 164.75,281.51 162.89,280.44 162.89,250.06 				"/>
			</g>
			<path class="st8" d="M175.83,253v39.53l24.82-14.34v-39.53L175.83,253z M198.2,272.93l-1.83,3.17l-16.27,9.39l-1.83-1.05v-20.46
				l1.83-3.17l16.27-9.39l1.83,1.05V272.93z"/>
		</g>
		<polygon class="st10" points="146.71,206.09 152.46,196.15 157.04,199.21 153.01,208.25 		"/>
		<polygon class="st10" points="198.95,196.15 204.7,206.09 200.77,208.14 194.63,200.79 		"/>
		<rect x="168.13" y="210.7" class="st10" width="15.97" height="13.05"/>
		<polygon class="st4" points="204.7,206.09 198.95,202.79 192.51,204.07 181.47,212.9 175.7,222.84 172.86,242.3 175.7,255.33 
			204.7,238.59 		"/>
		<polygon class="st4" points="177.78,254.13 173.55,254.09 173.55,265.28 175.7,269.58 177.78,268.38 		"/>
		<polygon class="st5" points="175.7,222.84 169.97,212.9 152.46,202.78 146.71,206.09 146.71,252.84 175.7,269.58 		"/>
		<g>
			<g>
				<polygon class="st11" points="158.61,247.42 159.45,246.96 162.84,248.92 161.97,250.82 				"/>
				<polygon class="st10" points="161.97,249.38 162.84,248.92 165.22,253.03 164.37,257.42 				"/>
				<polygon class="st4" points="164.37,253.54 165.22,253.03 165.22,256.98 164.37,257.42 				"/>
				<polygon class="st12" points="161.97,258.88 164.37,257.42 164.37,253.54 161.97,249.38 158.61,247.42 156.15,248.86 
					156.15,252.72 158.61,256.86 				"/>
			</g>
			<g>
				<polygon class="st13" points="157.73,249.28 158.72,248.7 161.42,250.25 160.42,251.95 				"/>
				<polygon class="st14" points="160.43,250.83 161.42,250.25 163.35,253.58 162.36,257.3 				"/>
				<polygon class="st15" points="162.36,254.16 163.35,253.58 163.35,256.69 162.36,257.3 				"/>
				<polygon class="st16" points="160.43,258.43 162.36,257.3 162.36,254.16 160.43,250.83 157.73,249.28 155.85,250.39 
					155.85,253.53 157.73,256.85 				"/>
			</g>
		</g>
		<polygon class="st12" points="198.95,202.79 198.95,196.15 181.47,186.05 169.97,186.05 152.46,196.15 152.46,202.79 
			169.97,212.9 181.47,212.9 		"/>
	</g>
</g>
</svg>
