<?xml version="1.0" encoding="utf-8"?>
<!-- Generator: Adobe Illustrator 27.0.0, SVG Export Plug-In . SVG Version: 6.00 Build 0)  -->
<svg version="1.1" id="Layer_1" xmlns="http://www.w3.org/2000/svg" xmlns:xlink="http://www.w3.org/1999/xlink" x="0px" y="0px"
	 viewBox="0 0 450 450" style="enable-background:new 0 0 450 450;" xml:space="preserve">
<style type="text/css">
	.st0{opacity:0.3;}
	.st1{fill:#F2F2F2;}
	.st2{fill:#B5AFA7;}
	.st3{fill:#E6E1DD;}
	.st4{fill:#D8D1C7;}
	.st5{fill:#A39C95;}
	.st6{fill:#944E39;}
	.st7{fill:#693121;}
	.st8{fill:#853E2A;}
	.st9{fill:#D18067;}
	.st10{fill:#836E69;}
	.st11{fill:#403531;}
	.st12{fill:#685750;}
	.st13{fill:#D1D1D1;}
	.st14{fill:#544540;}
	.st15{fill:#FBE979;}
	.st16{fill:#E3BD5E;}
	.st17{fill:#CC934C;}
	.st18{fill:#808080;}
	.st19{fill:#ADADAD;}
	.st20{fill:#F4EFE9;}
</style>
<g>
	<g>
		<polygon class="st0" points="398,276.76 247.82,363.46 52,250.4 202.18,163.7 		"/>
		<polygon class="st1" points="398,275.61 247.82,362.32 52,249.26 202.18,162.56 		"/>
		<polygon class="st2" points="235.74,201.18 118.89,268.64 113.61,265.59 230.46,198.13 		"/>
		<polygon class="st2" points="168.88,204.09 123.94,230.03 118.04,226.63 162.98,200.68 		"/>
		<polygon class="st2" points="247.49,207.96 130.64,275.43 125.35,272.37 242.21,204.91 		"/>
		<polygon class="st2" points="259.23,214.74 142.38,282.2 137.1,279.15 253.95,211.69 		"/>
		<polygon class="st2" points="270.98,221.52 154.13,288.98 148.84,285.93 265.69,218.47 		"/>
		<polygon class="st2" points="323.52,251.85 277.52,278.41 275.81,277.43 321.82,250.88 		"/>
		<polygon class="st2" points="339.84,261.27 293.84,287.83 292.13,286.86 338.13,260.29 		"/>
		<polygon class="st2" points="307.2,242.44 261.2,269 259.5,268.02 305.5,241.46 		"/>
		<polygon class="st2" points="234.5,256.14 165.87,295.76 160.59,292.72 229.22,253.09 		"/>
	</g>
	<g>
		<polygon class="st0" points="258.71,323.34 258.71,310.61 243.09,301.57 221.02,301.57 205.43,310.61 205.43,323.34 
			221.02,332.36 243.09,332.36 		"/>
		<g>
			<polygon class="st3" points="257.65,302.97 257.65,290.75 242.65,282.08 221.46,282.08 206.48,290.75 206.48,302.97 
				221.46,311.64 242.65,311.64 			"/>
			<rect x="221.46" y="311.64" class="st2" width="21.19" height="19.66"/>
			<polygon class="st4" points="221.46,331.3 206.48,322.65 206.48,302.97 221.46,311.64 			"/>
			<polygon class="st5" points="242.65,331.3 257.65,322.65 257.65,302.97 242.65,311.64 			"/>
		</g>
		<g>
			<polygon class="st6" points="221.02,329.12 205.43,320.13 205.43,300.17 222.34,308.13 			"/>
			<polygon class="st7" points="243.09,329.12 258.71,320.13 258.71,300.17 239.59,306.63 			"/>
			<rect x="221.02" y="306.72" class="st8" width="22.07" height="22.4"/>
			<polygon class="st9" points="258.71,300.17 258.71,287.44 243.09,278.41 221.02,278.41 205.43,287.44 205.43,300.17 
				221.02,309.19 243.09,309.19 			"/>
		</g>
		<g>
			<g>
				<polygon class="st3" points="240.67,293.9 240.67,289.79 235.62,286.88 228.5,286.88 223.46,289.79 223.46,293.9 228.5,296.81 
					235.62,296.81 				"/>
				<rect x="228.5" y="296.81" class="st2" width="7.12" height="2.23"/>
				<polygon class="st4" points="228.5,299.04 223.46,296.13 223.46,293.9 228.5,296.81 				"/>
				<polygon class="st5" points="235.62,299.04 240.67,296.13 240.67,293.9 235.62,296.81 				"/>
			</g>
			<g>
				<polygon class="st6" points="229.37,295.17 225.56,292.97 225.56,290.11 231.24,290.8 				"/>
				<polygon class="st7" points="234.76,295.17 238.57,292.97 238.57,290.11 233.52,290.64 				"/>
				<polygon class="st10" points="238.57,290.11 238.57,287 234.76,284.79 229.37,284.79 225.56,287 225.56,290.11 229.37,292.31 
					234.76,292.31 				"/>
				<rect x="229.37" y="292.31" class="st8" width="5.38" height="2.86"/>
			</g>
			<g>
				<polygon class="st3" points="240.67,288.15 240.67,284.04 235.62,281.12 228.5,281.12 223.46,284.04 223.46,288.15 
					228.5,291.06 235.62,291.06 				"/>
				<rect x="228.5" y="291.06" class="st2" width="7.12" height="2.23"/>
				<polygon class="st4" points="228.5,293.29 223.46,290.38 223.46,288.15 228.5,291.06 				"/>
				<polygon class="st5" points="235.62,293.29 240.67,290.38 240.67,288.15 235.62,291.06 				"/>
			</g>
		</g>
		<g>
			<polygon class="st6" points="244.39,258.06 245.01,246.98 237.99,237.66 225.96,237.66 217.46,246.16 217.46,258.18 
				222.75,263.49 224.1,275.09 222.01,281.86 222.01,286.62 227.85,289.99 236.06,289.59 241.39,286.11 240.51,282.64 
				238.65,275.56 240.15,262.35 			"/>
			<polygon class="st7" points="246.5,258.18 246.5,246.16 237.99,237.66 242,246.09 241.9,256.96 236.26,264.32 228.5,266.49 
				235.96,266.7 235.39,275.09 237.77,283.68 237.78,286.99 236.01,288.42 227.85,289.99 236.11,289.99 241.95,286.62 
				241.95,281.86 239.86,275.09 241.2,263.49 			"/>
			<polygon class="st9" points="227.61,240.83 224.33,241.71 221.39,244.65 220.51,247.93 222.21,249.62 225.49,248.74 
				228.43,245.8 229.31,242.53 			"/>
		</g>
	</g>
	<g>
		<g>
			<g>
				<polygon class="st10" points="279.03,258.73 277.85,257.8 276.08,264.9 				"/>
				<polygon class="st11" points="280.85,259.36 279.4,258.9 276.08,264.9 				"/>
				<polygon class="st12" points="279.72,259.41 279.68,258.84 278.46,258.76 276.08,264.9 				"/>
			</g>
			<g>
				<polygon class="st4" points="278.06,258.54 277.03,256.91 281.73,238.32 283.98,239.94 285.03,243.93 				"/>
				<polygon class="st2" points="280.15,259.65 278.06,258.54 284.37,242.55 289.25,240.44 289.77,245.41 288.42,249 				"/>
				<polygon class="st5" points="282.09,259.56 280.15,259.65 289.77,245.41 292.6,244.32 294.78,245.18 				"/>
			</g>
			<polygon class="st4" points="284.37,242.55 281.73,238.32 298.14,207.09 303.16,206.94 290.54,234.8 			"/>
			<polygon class="st2" points="289.77,245.41 284.37,242.55 303.16,206.94 308.56,209.77 296.44,236.21 			"/>
			<polygon class="st5" points="294.78,245.18 289.77,245.41 308.56,209.77 311.23,213.97 			"/>
		</g>
		<g>
			<g>
				<polygon class="st13" points="359.16,110.96 355.78,109.21 354.12,106.58 355.14,104.62 358.26,104.49 361.63,106.27 
					363.29,108.9 362.26,110.85 				"/>
				<polygon class="st10" points="355.78,109.21 354.12,106.58 336.6,138.04 336.27,139.92 335.16,140.62 298.14,207.09 
					300.81,211.31 323.44,171.57 355.83,109.55 				"/>
				<polygon class="st12" points="359.16,110.96 355.78,109.21 300.81,211.31 306.24,214.17 328.85,174.41 359.32,111.31 				"/>
				<polygon class="st14" points="362.26,110.85 359.16,110.96 306.24,214.17 311.23,213.97 344.97,145.79 344.29,144.81 
					346.29,143.13 				"/>
				<g>
					<polygon class="st15" points="336.6,138.04 338.59,141.15 338.68,142.58 337.15,143.8 335.15,140.62 					"/>
					<polygon class="st16" points="342.61,143.26 338.59,141.15 337.15,143.8 341.23,145.94 342.72,143.62 					"/>
					<polygon class="st17" points="346.29,143.13 342.61,143.26 341.23,145.94 344.97,145.79 					"/>
				</g>
			</g>
			<g>
				<polygon class="st13" points="354.12,106.58 355.14,104.62 367.79,86.59 369.13,87.28 358.11,107.43 				"/>
				<polygon class="st18" points="362.26,110.86 363.29,108.9 370.96,88.25 369.64,87.55 359.3,108.05 				"/>
				<polygon class="st3" points="368.73,88.04 367.41,87.35 354.12,106.58 355.77,109.21 359.3,105.37 				"/>
				<polygon class="st13" points="369.72,87.8 368.05,88.37 355.77,109.21 359.16,110.96 367.76,95.26 				"/>
				<polygon class="st19" points="370.57,89 369.72,87.8 369.35,89.04 359.16,110.96 362.28,110.86 				"/>
				<polygon class="st20" points="369.35,89.04 368.05,88.37 367.41,87.35 367.79,86.59 369,86.54 370.31,87.22 370.96,88.25 
					370.57,89 				"/>
			</g>
		</g>
	</g>
</g>
</svg>
