<?xml version="1.0" standalone="no"?>
<!DOCTYPE svg PUBLIC "-//W3C//DTD SVG 20010904//EN"
 "http://www.w3.org/TR/2001/REC-SVG-20010904/DTD/svg10.dtd">
<svg version="1.0" xmlns="http://www.w3.org/2000/svg"
 width="700.000000pt" height="700.000000pt" viewBox="0 0 700.000000 700.000000"
 preserveAspectRatio="xMidYMid meet">
<metadata>
Created by potrace 1.14, written by Peter Selinger 2001-2017
</metadata>
<g transform="translate(0.000000,700.000000) scale(0.100000,-0.100000)"
fill="#000000" stroke="none">
<path d="M3369 6996 c-2 -2 -31 -7 -64 -11 -423 -47 -880 -304 -1166 -655
-164 -202 -303 -486 -345 -703 -2 -12 -7 -35 -10 -52 -4 -16 -8 -44 -10 -62
-2 -18 -6 -50 -9 -70 -11 -88 -7 -279 10 -378 11 -66 18 -103 25 -130 36 -126
54 -181 62 -189 4 -6 8 -16 8 -23 0 -8 23 -62 50 -121 120 -253 297 -498 538
-740 l82 -83 0 -634 0 -634 -862 2 c-847 2 -864 2 -897 -18 -38 -22 -58 -56
-215 -360 -54 -104 -102 -194 -106 -200 -4 -5 -49 -91 -100 -190 -51 -99 -101
-193 -110 -210 -68 -118 -201 -389 -204 -416 -2 -19 1 -45 6 -59 6 -15 11
-206 12 -480 1 -340 5 -461 14 -477 7 -12 29 -35 49 -50 l36 -28 226 -2 c124
-1 1018 -5 1986 -8 968 -3 2369 -8 3113 -10 l1354 -5 39 22 c76 43 75 33 73
569 0 261 -4 492 -8 514 -7 35 -60 144 -171 350 -18 33 -95 175 -170 315 -76
140 -152 282 -170 315 -18 33 -47 87 -65 120 -127 237 -143 262 -173 281 -31
18 -67 19 -902 24 l-869 5 -1 630 0 630 40 34 c163 138 338 345 474 562 25 40
131 252 152 304 25 62 71 224 90 315 30 142 32 429 5 570 -1 8 -6 33 -10 55
-46 243 -183 532 -349 740 -22 28 -88 97 -147 155 -249 246 -552 404 -890 466
-74 14 -411 29 -421 20z m379 -310 c526 -94 967 -500 1117 -1027 49 -174 64
-424 35 -576 -6 -32 -14 -71 -17 -88 -19 -109 -108 -323 -203 -485 -100 -171
-310 -412 -453 -520 -99 -74 -91 14 -92 -976 0 -806 -2 -873 -18 -897 -31 -48
-132 -123 -233 -173 l-99 -49 -275 0 -275 0 -80 32 c-102 41 -228 119 -282
174 l-43 43 0 868 c0 727 -2 873 -14 896 -8 15 -56 68 -108 118 -355 346 -558
676 -639 1039 -21 92 -18 370 5 470 94 417 360 775 730 982 182 101 340 152
586 186 59 8 272 -2 358 -17z m-1687 -4465 l476 -1 5 -77 c4 -58 12 -91 31
-129 50 -99 196 -223 355 -303 69 -35 212 -92 212 -85 0 3 8 1 18 -5 9 -5 40
-12 67 -16 62 -8 515 -8 570 0 158 24 404 162 516 290 81 92 109 153 114 250
2 33 4 63 4 68 1 4 361 6 802 5 l801 -3 22 -40 c13 -22 89 -164 171 -315 220
-410 224 -418 277 -514 27 -48 47 -90 45 -93 -6 -5 9 -5 -3374 -4 l-2742 1 50
98 c69 131 154 292 199 377 20 39 73 140 118 225 44 85 95 182 112 215 l33 60
321 -2 c176 -1 535 -2 797 -2z m4604 -1270 c1 -8 -3 -648 -4 -652 -1 -7 -350
-6 -3331 5 -668 3 -1610 6 -2092 7 -625 2 -878 5 -879 13 -1 6 -2 152 -3 324
l-1 312 3155 -4 c1735 -2 3155 -4 3155 -5z"/>
<path d="M3160 6165 c-189 -39 -382 -143 -503 -270 -188 -198 -332 -636 -248
-753 54 -76 159 -85 221 -20 28 30 37 52 45 119 21 182 111 378 218 476 92 84
256 158 375 169 77 7 123 28 151 69 46 67 23 164 -49 204 -44 25 -111 27 -210
6z"/>
</g>
</svg>
